<mxfile host="Electron" modified="2024-04-05T23:05:56.644Z" agent="Mozilla/5.0 (Windows NT 10.0; Win64; x64) AppleWebKit/537.36 (KHTML, like Gecko) draw.io/24.0.4 Chrome/120.0.6099.109 Electron/28.1.0 Safari/537.36" etag="TYwkdBFis1dDu0JPEjKE" version="24.0.4" type="device">
  <diagram name="Página-1" id="3_D4UrufAzlvJXMYgRaT">
    <mxGraphModel dx="1034" dy="511" grid="1" gridSize="10" guides="1" tooltips="1" connect="1" arrows="1" fold="1" page="1" pageScale="1" pageWidth="827" pageHeight="1169" math="0" shadow="0">
      <root>
        <mxCell id="0" />
        <mxCell id="1" parent="0" />
        <mxCell id="h1j1szNo06SCoDuCaSPQ-2" value="Iniciar Sessão" style="ellipse;whiteSpace=wrap;html=1;" parent="1" vertex="1">
          <mxGeometry x="260" y="130" width="140" height="50" as="geometry" />
        </mxCell>
        <mxCell id="h1j1szNo06SCoDuCaSPQ-3" value="Encerrar Sessão" style="ellipse;whiteSpace=wrap;html=1;" parent="1" vertex="1">
          <mxGeometry x="260" y="190" width="140" height="50" as="geometry" />
        </mxCell>
        <mxCell id="h1j1szNo06SCoDuCaSPQ-4" value="Cadastrar Produto" style="ellipse;whiteSpace=wrap;html=1;" parent="1" vertex="1">
          <mxGeometry x="260" y="250" width="140" height="50" as="geometry" />
        </mxCell>
        <mxCell id="h1j1szNo06SCoDuCaSPQ-5" value="Lista Medicamentos/Produtos" style="ellipse;whiteSpace=wrap;html=1;" parent="1" vertex="1">
          <mxGeometry x="260" y="310" width="140" height="60" as="geometry" />
        </mxCell>
        <mxCell id="h1j1szNo06SCoDuCaSPQ-7" value="Editar Medicamentos/Produtos" style="ellipse;whiteSpace=wrap;html=1;" parent="1" vertex="1">
          <mxGeometry x="260" y="380" width="145" height="50" as="geometry" />
        </mxCell>
        <mxCell id="h1j1szNo06SCoDuCaSPQ-8" value="Eliminar Medicamentos/Produtos" style="ellipse;whiteSpace=wrap;html=1;" parent="1" vertex="1">
          <mxGeometry x="260" y="440" width="145" height="60" as="geometry" />
        </mxCell>
        <mxCell id="h1j1szNo06SCoDuCaSPQ-9" value="Lista de Clientes" style="ellipse;whiteSpace=wrap;html=1;" parent="1" vertex="1">
          <mxGeometry x="260" y="510" width="145" height="55" as="geometry" />
        </mxCell>
        <mxCell id="h1j1szNo06SCoDuCaSPQ-13" value="" style="shape=actor;whiteSpace=wrap;html=1;" parent="1" vertex="1">
          <mxGeometry x="47.5" y="590" width="65" height="90" as="geometry" />
        </mxCell>
        <mxCell id="h1j1szNo06SCoDuCaSPQ-14" value="Gerente" style="text;html=1;align=center;verticalAlign=middle;resizable=0;points=[];autosize=1;strokeColor=none;fillColor=none;" parent="1" vertex="1">
          <mxGeometry x="45" y="680" width="70" height="30" as="geometry" />
        </mxCell>
        <mxCell id="h1j1szNo06SCoDuCaSPQ-17" value="Lista de Vendas" style="ellipse;whiteSpace=wrap;html=1;" parent="1" vertex="1">
          <mxGeometry x="260" y="580" width="145" height="55" as="geometry" />
        </mxCell>
        <mxCell id="h1j1szNo06SCoDuCaSPQ-20" value="Ver Fornecedor" style="ellipse;whiteSpace=wrap;html=1;" parent="1" vertex="1">
          <mxGeometry x="257.5" y="650" width="145" height="55" as="geometry" />
        </mxCell>
        <mxCell id="h1j1szNo06SCoDuCaSPQ-21" value="Eliminar Fornecedor" style="ellipse;whiteSpace=wrap;html=1;" parent="1" vertex="1">
          <mxGeometry x="260" y="720" width="145" height="55" as="geometry" />
        </mxCell>
        <mxCell id="h1j1szNo06SCoDuCaSPQ-22" value="Encomendar ao Fornecedor" style="ellipse;whiteSpace=wrap;html=1;" parent="1" vertex="1">
          <mxGeometry x="260" y="800" width="145" height="55" as="geometry" />
        </mxCell>
        <mxCell id="h1j1szNo06SCoDuCaSPQ-23" value="Ver Encomendas do Fornecedor" style="ellipse;whiteSpace=wrap;html=1;" parent="1" vertex="1">
          <mxGeometry x="257.5" y="870" width="145" height="55" as="geometry" />
        </mxCell>
        <mxCell id="h1j1szNo06SCoDuCaSPQ-24" value="" style="endArrow=none;html=1;rounded=0;exitX=0;exitY=0.5;exitDx=0;exitDy=0;" parent="1" source="h1j1szNo06SCoDuCaSPQ-20" edge="1">
          <mxGeometry width="50" height="50" relative="1" as="geometry">
            <mxPoint x="40" y="780" as="sourcePoint" />
            <mxPoint x="120" y="690" as="targetPoint" />
          </mxGeometry>
        </mxCell>
        <mxCell id="h1j1szNo06SCoDuCaSPQ-25" value="" style="endArrow=none;html=1;rounded=0;exitX=0;exitY=0.5;exitDx=0;exitDy=0;" parent="1" source="h1j1szNo06SCoDuCaSPQ-23" edge="1">
          <mxGeometry width="50" height="50" relative="1" as="geometry">
            <mxPoint x="180" y="1020" as="sourcePoint" />
            <mxPoint x="80" y="720" as="targetPoint" />
          </mxGeometry>
        </mxCell>
        <mxCell id="h1j1szNo06SCoDuCaSPQ-26" value="" style="endArrow=none;html=1;rounded=0;exitX=0;exitY=0.5;exitDx=0;exitDy=0;" parent="1" source="h1j1szNo06SCoDuCaSPQ-22" edge="1">
          <mxGeometry width="50" height="50" relative="1" as="geometry">
            <mxPoint x="180" y="1020" as="sourcePoint" />
            <mxPoint x="100" y="720" as="targetPoint" />
          </mxGeometry>
        </mxCell>
        <mxCell id="h1j1szNo06SCoDuCaSPQ-27" value="" style="endArrow=none;html=1;rounded=0;exitX=0;exitY=0.5;exitDx=0;exitDy=0;" parent="1" source="h1j1szNo06SCoDuCaSPQ-21" edge="1">
          <mxGeometry width="50" height="50" relative="1" as="geometry">
            <mxPoint x="180" y="1020" as="sourcePoint" />
            <mxPoint x="110" y="720" as="targetPoint" />
          </mxGeometry>
        </mxCell>
        <mxCell id="h1j1szNo06SCoDuCaSPQ-30" value="" style="endArrow=none;html=1;rounded=0;entryX=0;entryY=1;entryDx=0;entryDy=0;" parent="1" target="h1j1szNo06SCoDuCaSPQ-17" edge="1">
          <mxGeometry width="50" height="50" relative="1" as="geometry">
            <mxPoint x="130" y="670" as="sourcePoint" />
            <mxPoint x="230" y="780" as="targetPoint" />
          </mxGeometry>
        </mxCell>
        <mxCell id="h1j1szNo06SCoDuCaSPQ-32" value="" style="endArrow=none;html=1;rounded=0;entryX=0;entryY=0.5;entryDx=0;entryDy=0;" parent="1" target="h1j1szNo06SCoDuCaSPQ-9" edge="1">
          <mxGeometry width="50" height="50" relative="1" as="geometry">
            <mxPoint x="120" y="650" as="sourcePoint" />
            <mxPoint x="230" y="780" as="targetPoint" />
          </mxGeometry>
        </mxCell>
        <mxCell id="h1j1szNo06SCoDuCaSPQ-33" value="" style="endArrow=none;html=1;rounded=0;entryX=0;entryY=0.5;entryDx=0;entryDy=0;" parent="1" target="h1j1szNo06SCoDuCaSPQ-8" edge="1">
          <mxGeometry width="50" height="50" relative="1" as="geometry">
            <mxPoint x="120" y="640" as="sourcePoint" />
            <mxPoint x="257.5" y="542" as="targetPoint" />
          </mxGeometry>
        </mxCell>
        <mxCell id="h1j1szNo06SCoDuCaSPQ-34" value="" style="endArrow=none;html=1;rounded=0;entryX=0;entryY=0.5;entryDx=0;entryDy=0;" parent="1" target="h1j1szNo06SCoDuCaSPQ-7" edge="1">
          <mxGeometry width="50" height="50" relative="1" as="geometry">
            <mxPoint x="120" y="620" as="sourcePoint" />
            <mxPoint x="277" y="632" as="targetPoint" />
          </mxGeometry>
        </mxCell>
        <mxCell id="h1j1szNo06SCoDuCaSPQ-36" value="" style="endArrow=none;html=1;rounded=0;entryX=0;entryY=0.5;entryDx=0;entryDy=0;" parent="1" source="h1j1szNo06SCoDuCaSPQ-13" edge="1">
          <mxGeometry width="50" height="50" relative="1" as="geometry">
            <mxPoint x="112" y="540" as="sourcePoint" />
            <mxPoint x="260" y="350" as="targetPoint" />
          </mxGeometry>
        </mxCell>
        <mxCell id="h1j1szNo06SCoDuCaSPQ-37" value="" style="endArrow=none;html=1;rounded=0;entryX=0;entryY=0.5;entryDx=0;entryDy=0;" parent="1" edge="1">
          <mxGeometry width="50" height="50" relative="1" as="geometry">
            <mxPoint x="100" y="580" as="sourcePoint" />
            <mxPoint x="268" y="290" as="targetPoint" />
          </mxGeometry>
        </mxCell>
        <mxCell id="h1j1szNo06SCoDuCaSPQ-38" value="" style="endArrow=none;html=1;rounded=0;entryX=0;entryY=0.5;entryDx=0;entryDy=0;" parent="1" edge="1">
          <mxGeometry width="50" height="50" relative="1" as="geometry">
            <mxPoint x="90" y="570" as="sourcePoint" />
            <mxPoint x="273" y="230" as="targetPoint" />
          </mxGeometry>
        </mxCell>
        <mxCell id="h1j1szNo06SCoDuCaSPQ-39" value="" style="endArrow=none;html=1;rounded=0;entryX=0;entryY=0.5;entryDx=0;entryDy=0;" parent="1" edge="1">
          <mxGeometry width="50" height="50" relative="1" as="geometry">
            <mxPoint x="80" y="560" as="sourcePoint" />
            <mxPoint x="273" y="170" as="targetPoint" />
          </mxGeometry>
        </mxCell>
        <mxCell id="Xw7SCeRBdc1X_fPPOjH--4" value="" style="endArrow=none;html=1;rounded=0;" parent="1" edge="1">
          <mxGeometry width="50" height="50" relative="1" as="geometry">
            <mxPoint x="200" y="960" as="sourcePoint" />
            <mxPoint x="200" y="120" as="targetPoint" />
          </mxGeometry>
        </mxCell>
        <mxCell id="Xw7SCeRBdc1X_fPPOjH--5" value="" style="endArrow=none;html=1;rounded=0;" parent="1" edge="1">
          <mxGeometry width="50" height="50" relative="1" as="geometry">
            <mxPoint x="440" y="960" as="sourcePoint" />
            <mxPoint x="440" y="120" as="targetPoint" />
          </mxGeometry>
        </mxCell>
        <mxCell id="Xw7SCeRBdc1X_fPPOjH--6" value="" style="endArrow=none;html=1;rounded=0;" parent="1" edge="1">
          <mxGeometry width="50" height="50" relative="1" as="geometry">
            <mxPoint x="200" y="960" as="sourcePoint" />
            <mxPoint x="440" y="960" as="targetPoint" />
          </mxGeometry>
        </mxCell>
        <mxCell id="Xw7SCeRBdc1X_fPPOjH--7" value="" style="endArrow=none;html=1;rounded=0;" parent="1" edge="1">
          <mxGeometry width="50" height="50" relative="1" as="geometry">
            <mxPoint x="200" y="120" as="sourcePoint" />
            <mxPoint x="440" y="120" as="targetPoint" />
          </mxGeometry>
        </mxCell>
      </root>
    </mxGraphModel>
  </diagram>
</mxfile>
